HIERARCHY
ROOT reference
{
  OFFSET 0 0 0
  CHANNELS 6 Xposition Yposition Zposition Zrotation Xrotation Yrotation
  JOINT Hips
  {
    OFFSET -0.0713296 89.0815 86.7308
    CHANNELS 6 Xposition Yposition Zposition Zrotation Xrotation Yrotation
    JOINT Spine
    {
      OFFSET 0 7.57377 0
      CHANNELS 6 Xposition Yposition Zposition Zrotation Xrotation Yrotation
      JOINT Spine1
      {
        OFFSET 0 21.6353 0
        CHANNELS 6 Xposition Yposition Zposition Zrotation Xrotation Yrotation
        JOINT Neck
        {
          OFFSET 0 21.5464 1.95876
          CHANNELS 6 Xposition Yposition Zposition Zrotation Xrotation Yrotation
          JOINT Head
          {
            OFFSET 0 12.9308 -1.84726
            CHANNELS 6 Xposition Yposition Zposition Zrotation Xrotation Yrotation
            End Site
            {
              OFFSET 0 23.0907 0
            }
          }
        }
        JOINT LeftShoulder
        {
          OFFSET 3.70822 19.5981 -0.368577
          CHANNELS 6 Xposition Yposition Zposition Zrotation Xrotation Yrotation
          JOINT LeftArm
          {
            OFFSET 11.1726 0 0
            CHANNELS 6 Xposition Yposition Zposition Zrotation Xrotation Yrotation
            JOINT LeftForeArm
            {
              OFFSET 28.6421 0 0
              CHANNELS 6 Xposition Yposition Zposition Zrotation Xrotation Yrotation
              JOINT LeftHand
              {
                OFFSET 23.9346 0 0
                CHANNELS 6 Xposition Yposition Zposition Zrotation Xrotation Yrotation
                End Site
                {
                  OFFSET 13.8545 0 0
                }
              }
            }
          }
        }
        JOINT RightShoulder
        {
          OFFSET -3.63664 19.5981 -0.368577
          CHANNELS 6 Xposition Yposition Zposition Zrotation Xrotation Yrotation
          JOINT RightArm
          {
            OFFSET -11.1726 0 0
            CHANNELS 6 Xposition Yposition Zposition Zrotation Xrotation Yrotation
            JOINT RightForeArm
            {
              OFFSET -28.6421 0 0
              CHANNELS 6 Xposition Yposition Zposition Zrotation Xrotation Yrotation
              JOINT RightHand
              {
                OFFSET -23.9346 0 0
                CHANNELS 6 Xposition Yposition Zposition Zrotation Xrotation Yrotation
                End Site
                {
                  OFFSET -13.8545 0 0
                }
              }
            }
          }
        }
      }
    }
    JOINT LeftUpLeg
    {
      OFFSET 9.2363 0 0
      CHANNELS 6 Xposition Yposition Zposition Zrotation Xrotation Yrotation
      JOINT LeftLeg
      {
        OFFSET 0 -40.7061 0
        CHANNELS 6 Xposition Yposition Zposition Zrotation Xrotation Yrotation
        JOINT LeftFoot
        {
          OFFSET 0 -40.9975 0
          CHANNELS 6 Xposition Yposition Zposition Zrotation Xrotation Yrotation
          JOINT LeftToeBase
          {
            OFFSET 0 -6.00359 13.8545
            CHANNELS 6 Xposition Yposition Zposition Zrotation Xrotation Yrotation
            End Site
            {
              OFFSET 0 0 3.69452
            }
          }
        }
      }
    }
    JOINT RightUpLeg
    {
      OFFSET -9.2363 0 0
      CHANNELS 6 Xposition Yposition Zposition Zrotation Xrotation Yrotation
      JOINT RightLeg
      {
        OFFSET 0 -40.7061 0
        CHANNELS 6 Xposition Yposition Zposition Zrotation Xrotation Yrotation
        JOINT RightFoot
        {
          OFFSET 0 -40.9975 0
          CHANNELS 6 Xposition Yposition Zposition Zrotation Xrotation Yrotation
          JOINT RightToeBase
          {
            OFFSET 0 -6.00359 13.8545
            CHANNELS 6 Xposition Yposition Zposition Zrotation Xrotation Yrotation
            End Site
            {
              OFFSET 0 0 3.69452
            }
          }
        }
      }
    }
  }
}
MOTION
Frames:	4
Frame Time:	0.004
0 0 0 0 0 -0 -29.8733 82.0483 -188.324 0.226353 1.55451 10.9385 7.10543e-015 7.57377 0 -2.11057 -9.16097 -0.541442 0 21.6353 0 0.546672 -5.05764 -0.348268 -7.10543e-015 21.5464 1.95876 -3.63236 16.4531 4.56777 7.10543e-015 12.9308 -1.84726 4.34075 22.6804 4.49281 3.70822 19.5981 -0.368577 14.214 -1.97003 -11.5499 11.1726 -2.84217e-014 0 -28.2599 3.98428 2.12178 28.6421 -2.84217e-014 0 2.3579 0.493284 0.082426 23.9346 0 0 9.02485 0.390226 -1.285 -3.63664 19.5981 -0.368577 -16.6892 -1.79215 -5.09328 -11.1726 0 0 29.1746 -2.75819 7.06566 -28.6421 -2.84217e-014 0 -0.00235504 -2.65001 -5.48427 -23.9346 0 0 -18.5257 -1.57271 -6.60327 9.2363 0 0 -0.933635 0.886279 -1.50519 0 -40.7061 0 0.319595 4.96606 -4.76463 0 -40.9975 0 2.51451 -10.7388 -7.43567 0 -6.00359 13.8545 -1.2424e-016 0 -0 -9.2363 -1.42109e-014 0 -0.278401 4.11528 3.36547 0 -40.7061 0 3.08536 5.25665 2.9227 0 -40.9975 2.84217e-014 -9.50586 -13.0453 -15.6861 -3.55271e-015 -6.00359 13.8545 2.48481e-017 -3.18055e-015 -3.97569e-016 
0 0 0 0 0 -0 -29.8733 82.0278 -188.314 0.238577 1.61272 10.882 7.10543e-015 7.57377 0 -2.12127 -9.23689 -0.514588 0 21.6353 -2.84217e-014 0.519813 -5.02426 -0.320533 3.55271e-015 21.5464 1.95876 -3.63331 16.3935 4.58753 7.10543e-015 12.9308 -1.84726 4.34697 22.7082 4.51391 3.70822 19.5981 -0.368577 14.2422 -2.00156 -11.517 11.1726 0 0 -28.2914 4.06671 2.10269 28.6421 -2.84217e-014 2.84217e-014 2.38731 0.413506 0.05503 23.9346 0 0 9.04107 0.31314 -1.25474 -3.63664 19.5981 -0.368577 -16.6173 -1.67419 -5.08095 -11.1726 0 0 29.1248 -2.83909 7.12117 -28.6421 0 0 -0.00349144 -2.58821 -5.484 -23.9346 2.84217e-014 2.84217e-014 -19.029 -1.47736 -6.62545 9.2363 0 2.84217e-014 -0.937915 0.840063 -1.29625 3.55271e-015 -40.7061 0 0.307202 4.98516 -5.02688 -1.77636e-015 -40.9975 0 2.61007 -10.852 -7.32728 0 -6.00359 13.8545 0 0 -0 -9.2363 1.42109e-014 0 -0.27436 4.32629 3.61957 0 -40.7061 -2.84217e-014 3.03865 4.73969 2.56092 7.10543e-015 -40.9975 0 -9.21559 -12.9917 -15.5373 3.55271e-015 -6.00359 13.8545 6.70898e-016 1.59028e-015 -3.97569e-016 
0 0 0 0 0 -0 -29.8733 82.0202 -188.312 0.248509 1.64847 10.8431 0 7.57377 2.84217e-014 -2.12636 -9.27957 -0.498244 7.10543e-015 21.6353 0 0.508746 -5.00628 -0.303526 7.10543e-015 21.5464 1.95876 -3.66638 16.4426 4.56341 0 12.9308 -1.84726 4.34111 22.5951 4.49201 3.70822 19.5981 -0.368577 14.2487 -1.98365 -11.4957 11.1726 0 0 -28.2981 4.07494 2.08075 28.6421 0 0 2.39659 0.404713 0.041437 23.9346 0 -2.84217e-014 9.0264 0.305131 -1.25286 -3.63664 19.5981 -0.368577 -16.6188 -1.67617 -5.07771 -11.1726 0 0 29.1335 -2.83964 7.12773 -28.6421 0 -2.84217e-014 -0.02721 -2.63754 -5.48422 -23.9346 0 2.84217e-014 -18.6011 -1.55795 -6.59732 9.2363 0 2.84217e-014 -0.940184 0.81549 -1.1759 7.10543e-015 -40.7061 0 0.292762 4.97743 -5.06595 7.10543e-015 -40.9975 0 2.59797 -10.8722 -7.36771 0 -6.00359 13.8545 -3.97569e-016 1.19271e-015 1.19271e-015 -9.2363 0 0 -0.288264 4.4111 3.72458 0 -40.7061 0 3.0215 4.50599 2.46149 0 -40.9975 0 -9.64374 -12.9007 -15.5348 0 -6.00359 13.8545 -1.2424e-015 -7.95139e-016 -0 
0 0 0 0 0 -0 -29.8743 82.0138 -188.307 0.249206 1.67747 10.791 -3.55271e-015 7.57377 0 -2.12627 -9.32731 -0.474916 0 21.6353 0 0.507559 -4.97835 -0.279024 0 21.5464 1.95876 -3.91647 16.4019 4.54414 -7.10543e-015 12.9308 -1.84726 4.72205 22.6256 4.44915 3.70822 19.5981 -0.368577 14.2525 -2.00657 -11.478 11.1726 -2.84217e-014 0 -28.3096 4.0949 2.07546 28.6421 0 0 2.40848 0.383912 0.027044 23.9346 2.84217e-014 0 9.03662 0.283283 -1.25301 -3.63664 19.5981 -0.368577 -16.6206 -1.67087 -5.07864 -11.1726 -2.84217e-014 0 29.1466 -2.85052 7.13909 -28.6421 0 0 -0.037046 -2.60904 -5.48434 -23.9346 0 2.84217e-014 -18.6363 -1.53063 -6.58014 9.2363 1.42109e-014 0 -0.942633 0.793599 -1.03161 0 -40.7061 0 0.295316 4.98979 -5.26955 0 -40.9975 0 2.60338 -10.8989 -7.27964 -7.10543e-015 -6.00359 13.8545 -2.73329e-016 -7.95139e-016 -7.95139e-016 -9.2363 0 2.84217e-014 -0.282843 4.48443 3.78144 0 -40.7061 2.84217e-014 2.98853 4.30914 2.41592 -7.10543e-015 -40.9975 2.84217e-014 -9.69483 -12.8531 -15.5041 7.10543e-015 -6.00359 13.8545 -7.70291e-016 0 3.97569e-016 
